<svg xmlns="http://www.w3.org/2000/svg" height="169.829" width="177.483"><path d="M125.694 80.997c-.963 8.037-1.8 15.458-1.862 16.491l.013.207c.309 4.946 4.026 6.006 8.106 5.576 13.147-1.387 20.633-16.7 19.539-34.218-2.007-32.153-27.991-42.69-55.418-39.8-33.094 3.49-68.113 27.308-65.411 70.591 1.789 28.649 24.024 52.236 69.131 47.478 4.849-.511 9.734-1.994 14.46-3.167a30.79 30.79 0 0014.495-8.193c4.8-4.914 12.4-4.658 18.107-1.007 2.618 1.674 7.643 4.912 7.365 8.546-.374 4.892-8.848 10.037-12.3 12.052a99.657 99.657 0 01-29.031 11.411c-8.982 2.017-18.248 2.187-27.4 1.525-7.645-.553-15.152-.368-22.689-1.875-12.673-2.533-24.918-7.715-34.8-16.16-13.607-11.631-21.294-28.558-22.4-46.307-3.59-57.5 44.527-90.795 89.861-95.577 39.894-4.208 78.115 12.3 80.894 56.818 1.57 25.145-14.185 54.192-49.548 57.923-4.135.436-11.719 1.771-14.14-2.682-1.71-3.146-2.6-8.681-7.713-5.888-3 1.64-4.238 5.4-6.387 7.889a17.3 17.3 0 01-8.106 5.29c-9.158 2.9-21.191 1.055-29.025-4.628-7.41-5.375-11.039-14.256-11.6-23.189a50.428 50.428 0 0112.969-36.4 52.691 52.691 0 0116.349-12.277c6.222-3 14.93-6.156 21.5-2.408 2.994 1.709 4.087 4.527 4.708 7.716.518-3.846 1.753-8.429 5.165-10.721 3.781-2.54 9.689-.663 12.932 2.046 3.087 2.579 3.927 6.2 3.916 10.057-.008 3.049.335 6.2.068 9.195-.4 4.57-1.164 9.134-1.748 13.686zm-23.584 3.814c.529-6.188-.359-13.36-8.059-10.954-7.86 2.456-13.572 14.073-14.215 21.585-.471 5.5 1.582 12.269 8.238 11.635 8.441-.8 11.715-9.375 13.191-16.583a50.429 50.429 0 00.845-5.684z" fill="#b5c933" stroke="#3e4147" stroke-linecap="round" stroke-linejoin="round" stroke-width="2"/><path d="M121.291 74.11c-.963 8.036-1.8 15.457-1.862 16.491l.013.206c.309 4.947 4.025 6.007 8.1 5.576 13.147-1.387 20.633-16.7 19.54-34.218-2.008-32.152-27.991-42.689-55.418-39.8-33.094 3.491-68.113 27.309-65.411 70.591 1.788 28.649 24.024 52.237 69.131 47.479 4.849-.512 9.734-2 14.46-3.168a30.793 30.793 0 0014.495-8.192c4.8-4.915 12.4-4.658 18.107-1.008 2.618 1.674 7.643 4.912 7.365 8.547-.374 4.891-8.848 10.036-12.3 12.052a99.62 99.62 0 01-29.03 11.41c-8.982 2.017-18.248 2.187-27.4 1.526-7.645-.553-15.152-.368-22.69-1.875-12.673-2.534-24.917-7.715-34.8-16.161-13.607-11.63-21.294-28.557-22.4-46.307-3.59-57.5 44.527-90.794 89.861-95.576 39.894-4.208 78.115 12.3 80.894 56.818 1.57 25.145-14.185 54.192-49.548 57.922-4.136.436-11.72 1.771-14.14-2.682-1.71-3.145-2.6-8.681-7.713-5.887-3 1.639-4.238 5.4-6.387 7.888a17.3 17.3 0 01-8.106 5.29c-9.158 2.9-21.192 1.055-29.025-4.627-7.41-5.376-11.04-14.257-11.6-23.19a50.425 50.425 0 0112.969-36.4 52.7 52.7 0 0116.348-12.277c6.223-2.995 14.93-6.156 21.5-2.407 2.995 1.708 4.087 4.526 4.709 7.715.517-3.846 1.753-8.428 5.165-10.721 3.781-2.54 9.689-.663 12.931 2.046 3.087 2.579 3.927 6.2 3.917 10.057-.008 3.049.334 6.2.067 9.2-.394 4.569-1.158 9.13-1.742 13.682zm-23.584 3.814c.529-6.189-.359-13.361-8.059-10.955-7.86 2.456-13.572 14.074-14.215 21.585-.471 5.5 1.581 12.269 8.237 11.635 8.442-.8 11.716-9.375 13.191-16.583a50.409 50.409 0 00.846-5.682z" fill="#cedd3e" stroke="#3e4147" stroke-linecap="round" stroke-linejoin="round" stroke-width="2"/><g fill="#fff" transform="translate(-1304.63 -2740.703)"><ellipse cx="20.603" cy="4.37" rx="20.603" ry="4.37" transform="rotate(-35.709 4977.637 -675.067)"/><ellipse cx="10.471" cy="3.08" rx="10.471" ry="3.08" transform="rotate(-33.83 5283.938 -848.005)"/><ellipse cx="6.467" cy="2.772" rx="6.467" ry="2.772" transform="rotate(-19.036 9293.14 -2809.684)"/></g></svg>
